ISO-10303-21;
HEADER;
FILE_DESCRIPTION(('FreeCAD Model'),'2;1');
FILE_NAME('Open CASCADE Shape Model','2025-09-04T06:50:02',(''),(''),
  'Open CASCADE STEP processor 7.8','FreeCAD','Unknown');
FILE_SCHEMA(('AUTOMOTIVE_DESIGN { 1 0 10303 214 1 1 1 1 }'));
ENDSEC;
DATA;
#1 = APPLICATION_PROTOCOL_DEFINITION('international standard',
  'automotive_design',2000,#2);
#2 = APPLICATION_CONTEXT(
  'core data for automotive mechanical design processes');
#3 = SHAPE_DEFINITION_REPRESENTATION(#4,#10);
#4 = PRODUCT_DEFINITION_SHAPE('','',#5);
#5 = PRODUCT_DEFINITION('design','',#6,#9);
#6 = PRODUCT_DEFINITION_FORMATION('','',#7);
#7 = PRODUCT('SOIC_Thermal_Pad_standard','SOIC_Thermal_Pad_standard','',
  (#8));
#8 = PRODUCT_CONTEXT('',#2,'mechanical');
#9 = PRODUCT_DEFINITION_CONTEXT('part definition',#2,'design');
#10 = SHAPE_REPRESENTATION('',(#11,#15,#19,#23,#27),#31);
#11 = AXIS2_PLACEMENT_3D('',#12,#13,#14);
#12 = CARTESIAN_POINT('',(0.,0.,0.));
#13 = DIRECTION('',(0.,0.,1.));
#14 = DIRECTION('',(1.,0.,-0.));
#15 = AXIS2_PLACEMENT_3D('',#16,#17,#18);
#16 = CARTESIAN_POINT('',(0.,0.,0.));
#17 = DIRECTION('',(0.,0.,1.));
#18 = DIRECTION('',(1.,0.,0.));
#19 = AXIS2_PLACEMENT_3D('',#20,#21,#22);
#20 = CARTESIAN_POINT('',(0.,0.,0.));
#21 = DIRECTION('',(0.,0.,1.));
#22 = DIRECTION('',(1.,0.,0.));
#23 = AXIS2_PLACEMENT_3D('',#24,#25,#26);
#24 = CARTESIAN_POINT('',(0.,0.,0.));
#25 = DIRECTION('',(0.,0.,1.));
#26 = DIRECTION('',(1.,0.,0.));
#27 = AXIS2_PLACEMENT_3D('',#28,#29,#30);
#28 = CARTESIAN_POINT('',(0.,0.,0.));
#29 = DIRECTION('',(0.,0.,1.));
#30 = DIRECTION('',(1.,0.,0.));
#31 = ( GEOMETRIC_REPRESENTATION_CONTEXT(3) 
GLOBAL_UNCERTAINTY_ASSIGNED_CONTEXT((#35)) GLOBAL_UNIT_ASSIGNED_CONTEXT(
(#32,#33,#34)) REPRESENTATION_CONTEXT('Context #1',
  '3D Context with UNIT and UNCERTAINTY') );
#32 = ( LENGTH_UNIT() NAMED_UNIT(*) SI_UNIT(.MILLI.,.METRE.) );
#33 = ( NAMED_UNIT(*) PLANE_ANGLE_UNIT() SI_UNIT($,.RADIAN.) );
#34 = ( NAMED_UNIT(*) SI_UNIT($,.STERADIAN.) SOLID_ANGLE_UNIT() );
#35 = UNCERTAINTY_MEASURE_WITH_UNIT(LENGTH_MEASURE(1.E-06),#32,
  'distance_accuracy_value','confusion accuracy');
#36 = PRODUCT_RELATED_PRODUCT_CATEGORY('part',$,(#7));
#37 = SHAPE_DEFINITION_REPRESENTATION(#38,#44);
#38 = PRODUCT_DEFINITION_SHAPE('','',#39);
#39 = PRODUCT_DEFINITION('design','',#40,#43);
#40 = PRODUCT_DEFINITION_FORMATION('','',#41);
#41 = PRODUCT('Body','Body','',(#42));
#42 = PRODUCT_CONTEXT('',#2,'mechanical');
#43 = PRODUCT_DEFINITION_CONTEXT('part definition',#2,'design');
#44 = ADVANCED_BREP_SHAPE_REPRESENTATION('',(#11,#45),#387);
#45 = MANIFOLD_SOLID_BREP('',#46);
#46 = CLOSED_SHELL('',(#47,#87,#118,#149,#180,#211,#235,#259,#276,#298,
    #322,#346,#363,#375));
#47 = ADVANCED_FACE('',(#48),#82,.T.);
#48 = FACE_BOUND('',#49,.T.);
#49 = EDGE_LOOP('',(#50,#60,#68,#76));
#50 = ORIENTED_EDGE('',*,*,#51,.T.);
#51 = EDGE_CURVE('',#52,#54,#56,.T.);
#52 = VERTEX_POINT('',#53);
#53 = CARTESIAN_POINT('',(1.95,0.807813802686,2.445));
#54 = VERTEX_POINT('',#55);
#55 = CARTESIAN_POINT('',(1.95,0.807813802686,-2.445));
#56 = LINE('',#57,#58);
#57 = CARTESIAN_POINT('',(1.95,0.807813802686,6.502220543981));
#58 = VECTOR('',#59,1.);
#59 = DIRECTION('',(0.,0.,-1.));
#60 = ORIENTED_EDGE('',*,*,#61,.T.);
#61 = EDGE_CURVE('',#54,#62,#64,.T.);
#62 = VERTEX_POINT('',#63);
#63 = CARTESIAN_POINT('',(1.95,1.027813802686,-2.445));
#64 = LINE('',#65,#66);
#65 = CARTESIAN_POINT('',(1.95,-5.428990590417E-16,-2.445));
#66 = VECTOR('',#67,1.);
#67 = DIRECTION('',(0.,1.,-2.22044604925E-16));
#68 = ORIENTED_EDGE('',*,*,#69,.F.);
#69 = EDGE_CURVE('',#70,#62,#72,.T.);
#70 = VERTEX_POINT('',#71);
#71 = CARTESIAN_POINT('',(1.95,1.027813802686,2.445));
#72 = LINE('',#73,#74);
#73 = CARTESIAN_POINT('',(1.95,1.027813802686,6.502220543981));
#74 = VECTOR('',#75,1.);
#75 = DIRECTION('',(0.,0.,-1.));
#76 = ORIENTED_EDGE('',*,*,#77,.F.);
#77 = EDGE_CURVE('',#52,#70,#78,.T.);
#78 = LINE('',#79,#80);
#79 = CARTESIAN_POINT('',(1.95,5.428990590417E-16,2.445));
#80 = VECTOR('',#81,1.);
#81 = DIRECTION('',(0.,1.,-2.22044604925E-16));
#82 = PLANE('',#83);
#83 = AXIS2_PLACEMENT_3D('',#84,#85,#86);
#84 = CARTESIAN_POINT('',(1.95,-5.428990590417E-16,-2.445));
#85 = DIRECTION('',(1.,0.,0.));
#86 = DIRECTION('',(0.,2.22044604925E-16,1.));
#87 = ADVANCED_FACE('',(#88),#113,.T.);
#88 = FACE_BOUND('',#89,.T.);
#89 = EDGE_LOOP('',(#90,#91,#99,#107));
#90 = ORIENTED_EDGE('',*,*,#51,.F.);
#91 = ORIENTED_EDGE('',*,*,#92,.F.);
#92 = EDGE_CURVE('',#93,#52,#95,.T.);
#93 = VERTEX_POINT('',#94);
#94 = CARTESIAN_POINT('',(1.858341207448,0.155627605373,2.353341207453)
  );
#95 = LINE('',#96,#97);
#96 = CARTESIAN_POINT('',(1.941877323469,0.750017956036,2.43687732347));
#97 = VECTOR('',#98,1.);
#98 = DIRECTION('',(0.137844537492,0.980814848465,0.137844537485));
#99 = ORIENTED_EDGE('',*,*,#100,.T.);
#100 = EDGE_CURVE('',#93,#101,#103,.T.);
#101 = VERTEX_POINT('',#102);
#102 = CARTESIAN_POINT('',(1.858341207448,0.155627605373,-2.353341207453
    ));
#103 = LINE('',#104,#105);
#104 = CARTESIAN_POINT('',(1.858341207448,0.155627605373,6.502220543981)
  );
#105 = VECTOR('',#106,1.);
#106 = DIRECTION('',(0.,0.,-1.));
#107 = ORIENTED_EDGE('',*,*,#108,.T.);
#108 = EDGE_CURVE('',#101,#54,#109,.T.);
#109 = LINE('',#110,#111);
#110 = CARTESIAN_POINT('',(1.818327873305,-0.129082060882,
    -2.313327873312));
#111 = VECTOR('',#112,1.);
#112 = DIRECTION('',(0.137844537492,0.980814848465,-0.137844537485));
#113 = PLANE('',#114);
#114 = AXIS2_PLACEMENT_3D('',#115,#116,#117);
#115 = CARTESIAN_POINT('',(1.858341207448,0.155627605373,6.502220543981)
  );
#116 = DIRECTION('',(0.990268068742,-0.13917310096,0.));
#117 = DIRECTION('',(0.13917310096,0.990268068742,0.));
#118 = ADVANCED_FACE('',(#119),#144,.T.);
#119 = FACE_BOUND('',#120,.T.);
#120 = EDGE_LOOP('',(#121,#129,#130,#138));
#121 = ORIENTED_EDGE('',*,*,#122,.F.);
#122 = EDGE_CURVE('',#52,#123,#125,.T.);
#123 = VERTEX_POINT('',#124);
#124 = CARTESIAN_POINT('',(-1.95,0.807813802686,2.445));
#125 = LINE('',#126,#127);
#126 = CARTESIAN_POINT('',(6.502220543981,0.807813802686,2.445));
#127 = VECTOR('',#128,1.);
#128 = DIRECTION('',(-1.,0.,0.));
#129 = ORIENTED_EDGE('',*,*,#77,.T.);
#130 = ORIENTED_EDGE('',*,*,#131,.T.);
#131 = EDGE_CURVE('',#70,#132,#134,.T.);
#132 = VERTEX_POINT('',#133);
#133 = CARTESIAN_POINT('',(-1.95,1.027813802686,2.445));
#134 = LINE('',#135,#136);
#135 = CARTESIAN_POINT('',(6.502220543981,1.027813802686,2.445));
#136 = VECTOR('',#137,1.);
#137 = DIRECTION('',(-1.,0.,0.));
#138 = ORIENTED_EDGE('',*,*,#139,.F.);
#139 = EDGE_CURVE('',#123,#132,#140,.T.);
#140 = LINE('',#141,#142);
#141 = CARTESIAN_POINT('',(-1.95,5.428990590417E-16,2.445));
#142 = VECTOR('',#143,1.);
#143 = DIRECTION('',(0.,1.,-2.22044604925E-16));
#144 = PLANE('',#145);
#145 = AXIS2_PLACEMENT_3D('',#146,#147,#148);
#146 = CARTESIAN_POINT('',(1.95,5.428990590417E-16,2.445));
#147 = DIRECTION('',(0.,2.22044604925E-16,1.));
#148 = DIRECTION('',(-1.,0.,0.));
#149 = ADVANCED_FACE('',(#150),#175,.F.);
#150 = FACE_BOUND('',#151,.F.);
#151 = EDGE_LOOP('',(#152,#153,#161,#169));
#152 = ORIENTED_EDGE('',*,*,#69,.F.);
#153 = ORIENTED_EDGE('',*,*,#154,.F.);
#154 = EDGE_CURVE('',#155,#70,#157,.T.);
#155 = VERTEX_POINT('',#156);
#156 = CARTESIAN_POINT('',(1.858341207448,1.68,2.353341207448));
#157 = LINE('',#158,#159);
#158 = CARTESIAN_POINT('',(1.986835910049,0.765712683629,2.481835910049)
  );
#159 = VECTOR('',#160,1.);
#160 = DIRECTION('',(0.137844537492,-0.980814848464,0.137844537492));
#161 = ORIENTED_EDGE('',*,*,#162,.T.);
#162 = EDGE_CURVE('',#155,#163,#165,.T.);
#163 = VERTEX_POINT('',#164);
#164 = CARTESIAN_POINT('',(1.858341207448,1.68,-2.353341207448));
#165 = LINE('',#166,#167);
#166 = CARTESIAN_POINT('',(1.858341207448,1.68,6.502220543981));
#167 = VECTOR('',#168,1.);
#168 = DIRECTION('',(0.,0.,-1.));
#169 = ORIENTED_EDGE('',*,*,#170,.T.);
#170 = EDGE_CURVE('',#163,#62,#171,.T.);
#171 = LINE('',#172,#173);
#172 = CARTESIAN_POINT('',(1.863286459878,1.644812700591,-2.358286459878
    ));
#173 = VECTOR('',#174,1.);
#174 = DIRECTION('',(0.137844537492,-0.980814848464,-0.137844537492));
#175 = PLANE('',#176);
#176 = AXIS2_PLACEMENT_3D('',#177,#178,#179);
#177 = CARTESIAN_POINT('',(1.858341207448,1.68,6.502220543981));
#178 = DIRECTION('',(-0.990268068742,-0.13917310096,0.));
#179 = DIRECTION('',(0.13917310096,-0.990268068742,0.));
#180 = ADVANCED_FACE('',(#181),#206,.T.);
#181 = FACE_BOUND('',#182,.T.);
#182 = EDGE_LOOP('',(#183,#191,#199,#205));
#183 = ORIENTED_EDGE('',*,*,#184,.T.);
#184 = EDGE_CURVE('',#54,#185,#187,.T.);
#185 = VERTEX_POINT('',#186);
#186 = CARTESIAN_POINT('',(-1.95,0.807813802686,-2.445));
#187 = LINE('',#188,#189);
#188 = CARTESIAN_POINT('',(6.502220543981,0.807813802686,-2.445));
#189 = VECTOR('',#190,1.);
#190 = DIRECTION('',(-1.,0.,0.));
#191 = ORIENTED_EDGE('',*,*,#192,.T.);
#192 = EDGE_CURVE('',#185,#193,#195,.T.);
#193 = VERTEX_POINT('',#194);
#194 = CARTESIAN_POINT('',(-1.95,1.027813802686,-2.445));
#195 = LINE('',#196,#197);
#196 = CARTESIAN_POINT('',(-1.95,-5.428990590417E-16,-2.445));
#197 = VECTOR('',#198,1.);
#198 = DIRECTION('',(0.,1.,-2.22044604925E-16));
#199 = ORIENTED_EDGE('',*,*,#200,.F.);
#200 = EDGE_CURVE('',#62,#193,#201,.T.);
#201 = LINE('',#202,#203);
#202 = CARTESIAN_POINT('',(6.502220543981,1.027813802686,-2.445));
#203 = VECTOR('',#204,1.);
#204 = DIRECTION('',(-1.,0.,0.));
#205 = ORIENTED_EDGE('',*,*,#61,.F.);
#206 = PLANE('',#207);
#207 = AXIS2_PLACEMENT_3D('',#208,#209,#210);
#208 = CARTESIAN_POINT('',(-1.95,-5.428990590417E-16,-2.445));
#209 = DIRECTION('',(0.,-2.22044604925E-16,-1.));
#210 = DIRECTION('',(1.,0.,0.));
#211 = ADVANCED_FACE('',(#212),#230,.F.);
#212 = FACE_BOUND('',#213,.T.);
#213 = EDGE_LOOP('',(#214,#215,#223,#229));
#214 = ORIENTED_EDGE('',*,*,#108,.F.);
#215 = ORIENTED_EDGE('',*,*,#216,.T.);
#216 = EDGE_CURVE('',#101,#217,#219,.T.);
#217 = VERTEX_POINT('',#218);
#218 = CARTESIAN_POINT('',(-1.858341207448,0.155627605373,
    -2.353341207453));
#219 = LINE('',#220,#221);
#220 = CARTESIAN_POINT('',(6.502220543981,0.155627605373,-2.353341207453
    ));
#221 = VECTOR('',#222,1.);
#222 = DIRECTION('',(-1.,0.,0.));
#223 = ORIENTED_EDGE('',*,*,#224,.T.);
#224 = EDGE_CURVE('',#217,#185,#225,.T.);
#225 = LINE('',#226,#227);
#226 = CARTESIAN_POINT('',(-1.694778423134,-1.008182077845,
    -2.189778423147));
#227 = VECTOR('',#228,1.);
#228 = DIRECTION('',(-0.137844537492,0.980814848465,-0.137844537485));
#229 = ORIENTED_EDGE('',*,*,#184,.F.);
#230 = PLANE('',#231);
#231 = AXIS2_PLACEMENT_3D('',#232,#233,#234);
#232 = CARTESIAN_POINT('',(6.502220543981,0.155627605373,-2.353341207453
    ));
#233 = DIRECTION('',(0.,0.139173100953,0.990268068743));
#234 = DIRECTION('',(0.,-0.990268068743,0.139173100953));
#235 = ADVANCED_FACE('',(#236),#254,.F.);
#236 = FACE_BOUND('',#237,.F.);
#237 = EDGE_LOOP('',(#238,#246,#247,#248));
#238 = ORIENTED_EDGE('',*,*,#239,.F.);
#239 = EDGE_CURVE('',#93,#240,#242,.T.);
#240 = VERTEX_POINT('',#241);
#241 = CARTESIAN_POINT('',(-1.858341207448,0.155627605373,2.353341207453
    ));
#242 = LINE('',#243,#244);
#243 = CARTESIAN_POINT('',(6.502220543981,0.155627605373,2.353341207453)
  );
#244 = VECTOR('',#245,1.);
#245 = DIRECTION('',(-1.,0.,0.));
#246 = ORIENTED_EDGE('',*,*,#100,.T.);
#247 = ORIENTED_EDGE('',*,*,#216,.T.);
#248 = ORIENTED_EDGE('',*,*,#249,.F.);
#249 = EDGE_CURVE('',#240,#217,#250,.T.);
#250 = LINE('',#251,#252);
#251 = CARTESIAN_POINT('',(-1.858341207448,0.155627605373,6.502220543981
    ));
#252 = VECTOR('',#253,1.);
#253 = DIRECTION('',(2.22044604925E-16,0.,-1.));
#254 = PLANE('',#255);
#255 = AXIS2_PLACEMENT_3D('',#256,#257,#258);
#256 = CARTESIAN_POINT('',(0.,0.155627605373,-2.775557561563E-17));
#257 = DIRECTION('',(0.,1.,0.));
#258 = DIRECTION('',(0.,0.,1.));
#259 = ADVANCED_FACE('',(#260),#271,.F.);
#260 = FACE_BOUND('',#261,.F.);
#261 = EDGE_LOOP('',(#262,#263,#264,#270));
#262 = ORIENTED_EDGE('',*,*,#92,.F.);
#263 = ORIENTED_EDGE('',*,*,#239,.T.);
#264 = ORIENTED_EDGE('',*,*,#265,.T.);
#265 = EDGE_CURVE('',#240,#123,#266,.T.);
#266 = LINE('',#267,#268);
#267 = CARTESIAN_POINT('',(-1.818327873298,-0.129082060928,
    2.313327873305));
#268 = VECTOR('',#269,1.);
#269 = DIRECTION('',(-0.137844537492,0.980814848465,0.137844537485));
#270 = ORIENTED_EDGE('',*,*,#122,.F.);
#271 = PLANE('',#272);
#272 = AXIS2_PLACEMENT_3D('',#273,#274,#275);
#273 = CARTESIAN_POINT('',(6.502220543981,0.155627605373,2.353341207453)
  );
#274 = DIRECTION('',(0.,0.139173100953,-0.990268068743));
#275 = DIRECTION('',(0.,0.990268068743,0.139173100953));
#276 = ADVANCED_FACE('',(#277),#293,.T.);
#277 = FACE_BOUND('',#278,.T.);
#278 = EDGE_LOOP('',(#279,#285,#286,#292));
#279 = ORIENTED_EDGE('',*,*,#280,.F.);
#280 = EDGE_CURVE('',#123,#185,#281,.T.);
#281 = LINE('',#282,#283);
#282 = CARTESIAN_POINT('',(-1.95,0.807813802686,6.502220543981));
#283 = VECTOR('',#284,1.);
#284 = DIRECTION('',(2.22044604925E-16,0.,-1.));
#285 = ORIENTED_EDGE('',*,*,#139,.T.);
#286 = ORIENTED_EDGE('',*,*,#287,.T.);
#287 = EDGE_CURVE('',#132,#193,#288,.T.);
#288 = LINE('',#289,#290);
#289 = CARTESIAN_POINT('',(-1.95,1.027813802686,6.502220543981));
#290 = VECTOR('',#291,1.);
#291 = DIRECTION('',(2.22044604925E-16,0.,-1.));
#292 = ORIENTED_EDGE('',*,*,#192,.F.);
#293 = PLANE('',#294);
#294 = AXIS2_PLACEMENT_3D('',#295,#296,#297);
#295 = CARTESIAN_POINT('',(-1.95,5.428990590417E-16,2.445));
#296 = DIRECTION('',(-1.,0.,0.));
#297 = DIRECTION('',(0.,-2.22044604925E-16,-1.));
#298 = ADVANCED_FACE('',(#299),#317,.F.);
#299 = FACE_BOUND('',#300,.F.);
#300 = EDGE_LOOP('',(#301,#302,#303,#311));
#301 = ORIENTED_EDGE('',*,*,#154,.T.);
#302 = ORIENTED_EDGE('',*,*,#131,.T.);
#303 = ORIENTED_EDGE('',*,*,#304,.F.);
#304 = EDGE_CURVE('',#305,#132,#307,.T.);
#305 = VERTEX_POINT('',#306);
#306 = CARTESIAN_POINT('',(-1.858341207448,1.68,2.353341207448));
#307 = LINE('',#308,#309);
#308 = CARTESIAN_POINT('',(-1.863286459878,1.644812700591,2.358286459878
    ));
#309 = VECTOR('',#310,1.);
#310 = DIRECTION('',(-0.137844537492,-0.980814848464,0.137844537492));
#311 = ORIENTED_EDGE('',*,*,#312,.F.);
#312 = EDGE_CURVE('',#155,#305,#313,.T.);
#313 = LINE('',#314,#315);
#314 = CARTESIAN_POINT('',(6.502220543981,1.68,2.353341207448));
#315 = VECTOR('',#316,1.);
#316 = DIRECTION('',(-1.,0.,0.));
#317 = PLANE('',#318);
#318 = AXIS2_PLACEMENT_3D('',#319,#320,#321);
#319 = CARTESIAN_POINT('',(6.502220543981,1.027813802686,2.445));
#320 = DIRECTION('',(0.,-0.13917310096,-0.990268068742));
#321 = DIRECTION('',(0.,0.990268068742,-0.13917310096));
#322 = ADVANCED_FACE('',(#323),#341,.F.);
#323 = FACE_BOUND('',#324,.T.);
#324 = EDGE_LOOP('',(#325,#326,#327,#335));
#325 = ORIENTED_EDGE('',*,*,#170,.T.);
#326 = ORIENTED_EDGE('',*,*,#200,.T.);
#327 = ORIENTED_EDGE('',*,*,#328,.F.);
#328 = EDGE_CURVE('',#329,#193,#331,.T.);
#329 = VERTEX_POINT('',#330);
#330 = CARTESIAN_POINT('',(-1.858341207448,1.68,-2.353341207448));
#331 = LINE('',#332,#333);
#332 = CARTESIAN_POINT('',(-1.739737009707,2.523912717553,
    -2.234737009707));
#333 = VECTOR('',#334,1.);
#334 = DIRECTION('',(-0.137844537492,-0.980814848464,-0.137844537492));
#335 = ORIENTED_EDGE('',*,*,#336,.F.);
#336 = EDGE_CURVE('',#163,#329,#337,.T.);
#337 = LINE('',#338,#339);
#338 = CARTESIAN_POINT('',(6.502220543981,1.68,-2.353341207448));
#339 = VECTOR('',#340,1.);
#340 = DIRECTION('',(-1.,0.,0.));
#341 = PLANE('',#342);
#342 = AXIS2_PLACEMENT_3D('',#343,#344,#345);
#343 = CARTESIAN_POINT('',(6.502220543981,1.027813802686,-2.445));
#344 = DIRECTION('',(0.,-0.13917310096,0.990268068742));
#345 = DIRECTION('',(-0.,-0.990268068742,-0.13917310096));
#346 = ADVANCED_FACE('',(#347),#358,.T.);
#347 = FACE_BOUND('',#348,.T.);
#348 = EDGE_LOOP('',(#349,#350,#351,#352));
#349 = ORIENTED_EDGE('',*,*,#312,.F.);
#350 = ORIENTED_EDGE('',*,*,#162,.T.);
#351 = ORIENTED_EDGE('',*,*,#336,.T.);
#352 = ORIENTED_EDGE('',*,*,#353,.F.);
#353 = EDGE_CURVE('',#305,#329,#354,.T.);
#354 = LINE('',#355,#356);
#355 = CARTESIAN_POINT('',(-1.858341207448,1.68,6.502220543981));
#356 = VECTOR('',#357,1.);
#357 = DIRECTION('',(2.22044604925E-16,0.,-1.));
#358 = PLANE('',#359);
#359 = AXIS2_PLACEMENT_3D('',#360,#361,#362);
#360 = CARTESIAN_POINT('',(0.,1.68,-4.440892098501E-16));
#361 = DIRECTION('',(0.,1.,0.));
#362 = DIRECTION('',(0.,0.,1.));
#363 = ADVANCED_FACE('',(#364),#370,.T.);
#364 = FACE_BOUND('',#365,.F.);
#365 = EDGE_LOOP('',(#366,#367,#368,#369));
#366 = ORIENTED_EDGE('',*,*,#280,.F.);
#367 = ORIENTED_EDGE('',*,*,#265,.F.);
#368 = ORIENTED_EDGE('',*,*,#249,.T.);
#369 = ORIENTED_EDGE('',*,*,#224,.T.);
#370 = PLANE('',#371);
#371 = AXIS2_PLACEMENT_3D('',#372,#373,#374);
#372 = CARTESIAN_POINT('',(-1.858341207448,0.155627605373,6.502220543981
    ));
#373 = DIRECTION('',(-0.990268068742,-0.13917310096,-2.198836820936E-16)
  );
#374 = DIRECTION('',(0.13917310096,-0.990268068742,3.090263621887E-17));
#375 = ADVANCED_FACE('',(#376),#382,.F.);
#376 = FACE_BOUND('',#377,.T.);
#377 = EDGE_LOOP('',(#378,#379,#380,#381));
#378 = ORIENTED_EDGE('',*,*,#287,.F.);
#379 = ORIENTED_EDGE('',*,*,#304,.F.);
#380 = ORIENTED_EDGE('',*,*,#353,.T.);
#381 = ORIENTED_EDGE('',*,*,#328,.T.);
#382 = PLANE('',#383);
#383 = AXIS2_PLACEMENT_3D('',#384,#385,#386);
#384 = CARTESIAN_POINT('',(-1.858341207448,1.68,6.502220543981));
#385 = DIRECTION('',(0.990268068742,-0.13917310096,2.198836820936E-16));
#386 = DIRECTION('',(0.13917310096,0.990268068742,3.090263621887E-17));
#387 = ( GEOMETRIC_REPRESENTATION_CONTEXT(3) 
GLOBAL_UNCERTAINTY_ASSIGNED_CONTEXT((#391)) GLOBAL_UNIT_ASSIGNED_CONTEXT
((#388,#389,#390)) REPRESENTATION_CONTEXT('Context #1',
  '3D Context with UNIT and UNCERTAINTY') );
#388 = ( LENGTH_UNIT() NAMED_UNIT(*) SI_UNIT(.MILLI.,.METRE.) );
#389 = ( NAMED_UNIT(*) PLANE_ANGLE_UNIT() SI_UNIT($,.RADIAN.) );
#390 = ( NAMED_UNIT(*) SI_UNIT($,.STERADIAN.) SOLID_ANGLE_UNIT() );
#391 = UNCERTAINTY_MEASURE_WITH_UNIT(LENGTH_MEASURE(5.E-06),#388,
  'distance_accuracy_value','confusion accuracy');
#392 = CONTEXT_DEPENDENT_SHAPE_REPRESENTATION(#393,#395);
#393 = ( REPRESENTATION_RELATIONSHIP('','',#44,#10) 
REPRESENTATION_RELATIONSHIP_WITH_TRANSFORMATION(#394) 
SHAPE_REPRESENTATION_RELATIONSHIP() );
#394 = ITEM_DEFINED_TRANSFORMATION('','',#11,#15);
#395 = PRODUCT_DEFINITION_SHAPE('Placement','Placement of an item',#396
  );
#396 = NEXT_ASSEMBLY_USAGE_OCCURRENCE('7440','Body','',#5,#39,$);
#397 = PRODUCT_RELATED_PRODUCT_CATEGORY('part',$,(#41));
#398 = SHAPE_DEFINITION_REPRESENTATION(#399,#405);
#399 = PRODUCT_DEFINITION_SHAPE('','',#400);
#400 = PRODUCT_DEFINITION('design','',#401,#404);
#401 = PRODUCT_DEFINITION_FORMATION('','',#402);
#402 = PRODUCT('Body002','Body002','',(#403));
#403 = PRODUCT_CONTEXT('',#2,'mechanical');
#404 = PRODUCT_DEFINITION_CONTEXT('part definition',#2,'design');
#405 = ADVANCED_BREP_SHAPE_REPRESENTATION('',(#11,#406),#556);
#406 = MANIFOLD_SOLID_BREP('',#407);
#407 = CLOSED_SHELL('',(#408,#448,#479,#510,#532,#544));
#408 = ADVANCED_FACE('',(#409),#443,.T.);
#409 = FACE_BOUND('',#410,.T.);
#410 = EDGE_LOOP('',(#411,#421,#429,#437));
#411 = ORIENTED_EDGE('',*,*,#412,.T.);
#412 = EDGE_CURVE('',#413,#415,#417,.T.);
#413 = VERTEX_POINT('',#414);
#414 = CARTESIAN_POINT('',(-1.0675,-2.370326157575E-16,-1.0675));
#415 = VERTEX_POINT('',#416);
#416 = CARTESIAN_POINT('',(-1.0675,0.155627605373,-1.0675));
#417 = LINE('',#418,#419);
#418 = CARTESIAN_POINT('',(-1.0675,-2.370326157575E-16,-1.0675));
#419 = VECTOR('',#420,1.);
#420 = DIRECTION('',(-0.,1.,-2.E-16));
#421 = ORIENTED_EDGE('',*,*,#422,.T.);
#422 = EDGE_CURVE('',#415,#423,#425,.T.);
#423 = VERTEX_POINT('',#424);
#424 = CARTESIAN_POINT('',(1.0675,0.155627605373,-1.0675));
#425 = LINE('',#426,#427);
#426 = CARTESIAN_POINT('',(-1.0675,0.155627605373,-1.0675));
#427 = VECTOR('',#428,1.);
#428 = DIRECTION('',(1.,0.,0.));
#429 = ORIENTED_EDGE('',*,*,#430,.F.);
#430 = EDGE_CURVE('',#431,#423,#433,.T.);
#431 = VERTEX_POINT('',#432);
#432 = CARTESIAN_POINT('',(1.0675,-2.370326157575E-16,-1.0675));
#433 = LINE('',#434,#435);
#434 = CARTESIAN_POINT('',(1.0675,-2.370326157575E-16,-1.0675));
#435 = VECTOR('',#436,1.);
#436 = DIRECTION('',(-0.,1.,-2.E-16));
#437 = ORIENTED_EDGE('',*,*,#438,.F.);
#438 = EDGE_CURVE('',#413,#431,#439,.T.);
#439 = LINE('',#440,#441);
#440 = CARTESIAN_POINT('',(-1.0675,-2.370326157575E-16,-1.0675));
#441 = VECTOR('',#442,1.);
#442 = DIRECTION('',(1.,0.,0.));
#443 = PLANE('',#444);
#444 = AXIS2_PLACEMENT_3D('',#445,#446,#447);
#445 = CARTESIAN_POINT('',(-1.0675,-2.370326157575E-16,-1.0675));
#446 = DIRECTION('',(0.,-2.E-16,-1.));
#447 = DIRECTION('',(1.,0.,0.));
#448 = ADVANCED_FACE('',(#449),#474,.T.);
#449 = FACE_BOUND('',#450,.T.);
#450 = EDGE_LOOP('',(#451,#452,#460,#468));
#451 = ORIENTED_EDGE('',*,*,#430,.T.);
#452 = ORIENTED_EDGE('',*,*,#453,.T.);
#453 = EDGE_CURVE('',#423,#454,#456,.T.);
#454 = VERTEX_POINT('',#455);
#455 = CARTESIAN_POINT('',(1.0675,0.155627605373,1.0675));
#456 = LINE('',#457,#458);
#457 = CARTESIAN_POINT('',(1.0675,0.155627605373,-1.0675));
#458 = VECTOR('',#459,1.);
#459 = DIRECTION('',(0.,2.22044604925E-16,1.));
#460 = ORIENTED_EDGE('',*,*,#461,.F.);
#461 = EDGE_CURVE('',#462,#454,#464,.T.);
#462 = VERTEX_POINT('',#463);
#463 = CARTESIAN_POINT('',(1.0675,2.370326157575E-16,1.0675));
#464 = LINE('',#465,#466);
#465 = CARTESIAN_POINT('',(1.0675,2.370326157575E-16,1.0675));
#466 = VECTOR('',#467,1.);
#467 = DIRECTION('',(-0.,1.,-2.E-16));
#468 = ORIENTED_EDGE('',*,*,#469,.F.);
#469 = EDGE_CURVE('',#431,#462,#470,.T.);
#470 = LINE('',#471,#472);
#471 = CARTESIAN_POINT('',(1.0675,-2.370326157575E-16,-1.0675));
#472 = VECTOR('',#473,1.);
#473 = DIRECTION('',(0.,2.22044604925E-16,1.));
#474 = PLANE('',#475);
#475 = AXIS2_PLACEMENT_3D('',#476,#477,#478);
#476 = CARTESIAN_POINT('',(1.0675,-2.370326157575E-16,-1.0675));
#477 = DIRECTION('',(1.,0.,0.));
#478 = DIRECTION('',(0.,2.22044604925E-16,1.));
#479 = ADVANCED_FACE('',(#480),#505,.T.);
#480 = FACE_BOUND('',#481,.T.);
#481 = EDGE_LOOP('',(#482,#483,#491,#499));
#482 = ORIENTED_EDGE('',*,*,#461,.T.);
#483 = ORIENTED_EDGE('',*,*,#484,.T.);
#484 = EDGE_CURVE('',#454,#485,#487,.T.);
#485 = VERTEX_POINT('',#486);
#486 = CARTESIAN_POINT('',(-1.0675,0.155627605373,1.0675));
#487 = LINE('',#488,#489);
#488 = CARTESIAN_POINT('',(1.0675,0.155627605373,1.0675));
#489 = VECTOR('',#490,1.);
#490 = DIRECTION('',(-1.,0.,0.));
#491 = ORIENTED_EDGE('',*,*,#492,.F.);
#492 = EDGE_CURVE('',#493,#485,#495,.T.);
#493 = VERTEX_POINT('',#494);
#494 = CARTESIAN_POINT('',(-1.0675,2.370326157575E-16,1.0675));
#495 = LINE('',#496,#497);
#496 = CARTESIAN_POINT('',(-1.0675,2.370326157575E-16,1.0675));
#497 = VECTOR('',#498,1.);
#498 = DIRECTION('',(-0.,1.,-2.E-16));
#499 = ORIENTED_EDGE('',*,*,#500,.F.);
#500 = EDGE_CURVE('',#462,#493,#501,.T.);
#501 = LINE('',#502,#503);
#502 = CARTESIAN_POINT('',(1.0675,2.370326157575E-16,1.0675));
#503 = VECTOR('',#504,1.);
#504 = DIRECTION('',(-1.,0.,0.));
#505 = PLANE('',#506);
#506 = AXIS2_PLACEMENT_3D('',#507,#508,#509);
#507 = CARTESIAN_POINT('',(1.0675,2.370326157575E-16,1.0675));
#508 = DIRECTION('',(0.,2.E-16,1.));
#509 = DIRECTION('',(-1.,-0.,0.));
#510 = ADVANCED_FACE('',(#511),#527,.T.);
#511 = FACE_BOUND('',#512,.T.);
#512 = EDGE_LOOP('',(#513,#514,#520,#521));
#513 = ORIENTED_EDGE('',*,*,#492,.T.);
#514 = ORIENTED_EDGE('',*,*,#515,.T.);
#515 = EDGE_CURVE('',#485,#415,#516,.T.);
#516 = LINE('',#517,#518);
#517 = CARTESIAN_POINT('',(-1.0675,0.155627605373,1.0675));
#518 = VECTOR('',#519,1.);
#519 = DIRECTION('',(0.,-2.22044604925E-16,-1.));
#520 = ORIENTED_EDGE('',*,*,#412,.F.);
#521 = ORIENTED_EDGE('',*,*,#522,.F.);
#522 = EDGE_CURVE('',#493,#413,#523,.T.);
#523 = LINE('',#524,#525);
#524 = CARTESIAN_POINT('',(-1.0675,2.370326157575E-16,1.0675));
#525 = VECTOR('',#526,1.);
#526 = DIRECTION('',(0.,-2.22044604925E-16,-1.));
#527 = PLANE('',#528);
#528 = AXIS2_PLACEMENT_3D('',#529,#530,#531);
#529 = CARTESIAN_POINT('',(-1.0675,2.370326157575E-16,1.0675));
#530 = DIRECTION('',(-1.,-0.,0.));
#531 = DIRECTION('',(0.,-2.22044604925E-16,-1.));
#532 = ADVANCED_FACE('',(#533),#539,.F.);
#533 = FACE_BOUND('',#534,.T.);
#534 = EDGE_LOOP('',(#535,#536,#537,#538));
#535 = ORIENTED_EDGE('',*,*,#438,.T.);
#536 = ORIENTED_EDGE('',*,*,#469,.T.);
#537 = ORIENTED_EDGE('',*,*,#500,.T.);
#538 = ORIENTED_EDGE('',*,*,#522,.T.);
#539 = PLANE('',#540);
#540 = AXIS2_PLACEMENT_3D('',#541,#542,#543);
#541 = CARTESIAN_POINT('',(-5.200107843678E-17,1.154655891717E-32,
    5.200107843678E-17));
#542 = DIRECTION('',(0.,1.,0.));
#543 = DIRECTION('',(0.,0.,1.));
#544 = ADVANCED_FACE('',(#545),#551,.T.);
#545 = FACE_BOUND('',#546,.F.);
#546 = EDGE_LOOP('',(#547,#548,#549,#550));
#547 = ORIENTED_EDGE('',*,*,#422,.T.);
#548 = ORIENTED_EDGE('',*,*,#453,.T.);
#549 = ORIENTED_EDGE('',*,*,#484,.T.);
#550 = ORIENTED_EDGE('',*,*,#515,.T.);
#551 = PLANE('',#552);
#552 = AXIS2_PLACEMENT_3D('',#553,#554,#555);
#553 = CARTESIAN_POINT('',(-5.200107843678E-17,0.155627605373,
    2.775557561563E-17));
#554 = DIRECTION('',(0.,1.,0.));
#555 = DIRECTION('',(0.,0.,1.));
#556 = ( GEOMETRIC_REPRESENTATION_CONTEXT(3) 
GLOBAL_UNCERTAINTY_ASSIGNED_CONTEXT((#560)) GLOBAL_UNIT_ASSIGNED_CONTEXT
((#557,#558,#559)) REPRESENTATION_CONTEXT('Context #1',
  '3D Context with UNIT and UNCERTAINTY') );
#557 = ( LENGTH_UNIT() NAMED_UNIT(*) SI_UNIT(.MILLI.,.METRE.) );
#558 = ( NAMED_UNIT(*) PLANE_ANGLE_UNIT() SI_UNIT($,.RADIAN.) );
#559 = ( NAMED_UNIT(*) SI_UNIT($,.STERADIAN.) SOLID_ANGLE_UNIT() );
#560 = UNCERTAINTY_MEASURE_WITH_UNIT(LENGTH_MEASURE(1.E-07),#557,
  'distance_accuracy_value','confusion accuracy');
#561 = CONTEXT_DEPENDENT_SHAPE_REPRESENTATION(#562,#564);
#562 = ( REPRESENTATION_RELATIONSHIP('','',#405,#10) 
REPRESENTATION_RELATIONSHIP_WITH_TRANSFORMATION(#563) 
SHAPE_REPRESENTATION_RELATIONSHIP() );
#563 = ITEM_DEFINED_TRANSFORMATION('','',#11,#19);
#564 = PRODUCT_DEFINITION_SHAPE('Placement','Placement of an item',#565
  );
#565 = NEXT_ASSEMBLY_USAGE_OCCURRENCE('7441','Body002','',#5,#400,$);
#566 = PRODUCT_RELATED_PRODUCT_CATEGORY('part',$,(#402));
#567 = SHAPE_DEFINITION_REPRESENTATION(#568,#574);
#568 = PRODUCT_DEFINITION_SHAPE('','',#569);
#569 = PRODUCT_DEFINITION('design','',#570,#573);
#570 = PRODUCT_DEFINITION_FORMATION('','',#571);
#571 = PRODUCT('Array001','Array001','',(#572));
#572 = PRODUCT_CONTEXT('',#2,'mechanical');
#573 = PRODUCT_DEFINITION_CONTEXT('part definition',#2,'design');
#574 = SHAPE_REPRESENTATION('',(#11,#575,#579,#583,#587),#591);
#575 = AXIS2_PLACEMENT_3D('',#576,#577,#578);
#576 = CARTESIAN_POINT('',(0.,0.,1.905));
#577 = DIRECTION('',(0.,0.,1.));
#578 = DIRECTION('',(1.,0.,0.));
#579 = AXIS2_PLACEMENT_3D('',#580,#581,#582);
#580 = CARTESIAN_POINT('',(0.,0.,0.635));
#581 = DIRECTION('',(0.,0.,1.));
#582 = DIRECTION('',(1.,0.,0.));
#583 = AXIS2_PLACEMENT_3D('',#584,#585,#586);
#584 = CARTESIAN_POINT('',(0.,0.,-0.635));
#585 = DIRECTION('',(0.,0.,1.));
#586 = DIRECTION('',(1.,0.,0.));
#587 = AXIS2_PLACEMENT_3D('',#588,#589,#590);
#588 = CARTESIAN_POINT('',(0.,0.,-1.905));
#589 = DIRECTION('',(0.,0.,1.));
#590 = DIRECTION('',(1.,0.,0.));
#591 = ( GEOMETRIC_REPRESENTATION_CONTEXT(3) 
GLOBAL_UNCERTAINTY_ASSIGNED_CONTEXT((#595)) GLOBAL_UNIT_ASSIGNED_CONTEXT
((#592,#593,#594)) REPRESENTATION_CONTEXT('Context #1',
  '3D Context with UNIT and UNCERTAINTY') );
#592 = ( LENGTH_UNIT() NAMED_UNIT(*) SI_UNIT(.MILLI.,.METRE.) );
#593 = ( NAMED_UNIT(*) PLANE_ANGLE_UNIT() SI_UNIT($,.RADIAN.) );
#594 = ( NAMED_UNIT(*) SI_UNIT($,.STERADIAN.) SOLID_ANGLE_UNIT() );
#595 = UNCERTAINTY_MEASURE_WITH_UNIT(LENGTH_MEASURE(1.E-07),#592,
  'distance_accuracy_value','confusion accuracy');
#596 = CONTEXT_DEPENDENT_SHAPE_REPRESENTATION(#597,#599);
#597 = ( REPRESENTATION_RELATIONSHIP('','',#574,#10) 
REPRESENTATION_RELATIONSHIP_WITH_TRANSFORMATION(#598) 
SHAPE_REPRESENTATION_RELATIONSHIP() );
#598 = ITEM_DEFINED_TRANSFORMATION('','',#11,#23);
#599 = PRODUCT_DEFINITION_SHAPE('Placement','Placement of an item',#600
  );
#600 = NEXT_ASSEMBLY_USAGE_OCCURRENCE('7446','Array001','',#5,#569,$);
#601 = PRODUCT_RELATED_PRODUCT_CATEGORY('part',$,(#571));
#602 = SHAPE_DEFINITION_REPRESENTATION(#603,#609);
#603 = PRODUCT_DEFINITION_SHAPE('','',#604);
#604 = PRODUCT_DEFINITION('design','',#605,#608);
#605 = PRODUCT_DEFINITION_FORMATION('','',#606);
#606 = PRODUCT('Body001','Body001','',(#607));
#607 = PRODUCT_CONTEXT('',#2,'mechanical');
#608 = PRODUCT_DEFINITION_CONTEXT('part definition',#2,'design');
#609 = ADVANCED_BREP_SHAPE_REPRESENTATION('',(#11,#610),#892);
#610 = MANIFOLD_SOLID_BREP('',#611);
#611 = CLOSED_SHELL('',(#612,#652,#683,#714,#745,#776,#807,#838,#860,
    #876));
#612 = ADVANCED_FACE('',(#613),#647,.F.);
#613 = FACE_BOUND('',#614,.F.);
#614 = EDGE_LOOP('',(#615,#625,#633,#641));
#615 = ORIENTED_EDGE('',*,*,#616,.T.);
#616 = EDGE_CURVE('',#617,#619,#621,.T.);
#617 = VERTEX_POINT('',#618);
#618 = CARTESIAN_POINT('',(1.95,0.807813802686,-0.21));
#619 = VERTEX_POINT('',#620);
#620 = CARTESIAN_POINT('',(1.95,0.807813802686,0.21));
#621 = LINE('',#622,#623);
#622 = CARTESIAN_POINT('',(1.95,0.807813802686,-0.21));
#623 = VECTOR('',#624,1.);
#624 = DIRECTION('',(0.,0.,1.));
#625 = ORIENTED_EDGE('',*,*,#626,.T.);
#626 = EDGE_CURVE('',#619,#627,#629,.T.);
#627 = VERTEX_POINT('',#628);
#628 = CARTESIAN_POINT('',(2.05,0.807813802686,0.21));
#629 = LINE('',#630,#631);
#630 = CARTESIAN_POINT('',(1.95,0.807813802686,0.21));
#631 = VECTOR('',#632,1.);
#632 = DIRECTION('',(1.,0.,0.));
#633 = ORIENTED_EDGE('',*,*,#634,.F.);
#634 = EDGE_CURVE('',#635,#627,#637,.T.);
#635 = VERTEX_POINT('',#636);
#636 = CARTESIAN_POINT('',(2.05,0.807813802686,-0.21));
#637 = LINE('',#638,#639);
#638 = CARTESIAN_POINT('',(2.05,0.807813802686,-0.21));
#639 = VECTOR('',#640,1.);
#640 = DIRECTION('',(0.,0.,1.));
#641 = ORIENTED_EDGE('',*,*,#642,.F.);
#642 = EDGE_CURVE('',#617,#635,#643,.T.);
#643 = LINE('',#644,#645);
#644 = CARTESIAN_POINT('',(1.95,0.807813802686,-0.21));
#645 = VECTOR('',#646,1.);
#646 = DIRECTION('',(1.,0.,0.));
#647 = PLANE('',#648);
#648 = AXIS2_PLACEMENT_3D('',#649,#650,#651);
#649 = CARTESIAN_POINT('',(1.95,0.807813802686,-0.21));
#650 = DIRECTION('',(0.,1.,0.));
#651 = DIRECTION('',(1.,0.,0.));
#652 = ADVANCED_FACE('',(#653),#678,.F.);
#653 = FACE_BOUND('',#654,.F.);
#654 = EDGE_LOOP('',(#655,#656,#664,#672));
#655 = ORIENTED_EDGE('',*,*,#634,.T.);
#656 = ORIENTED_EDGE('',*,*,#657,.T.);
#657 = EDGE_CURVE('',#627,#658,#660,.T.);
#658 = VERTEX_POINT('',#659);
#659 = CARTESIAN_POINT('',(2.3525,2.89239637552E-23,0.21));
#660 = LINE('',#661,#662);
#661 = CARTESIAN_POINT('',(2.05,0.807813802686,0.21));
#662 = VECTOR('',#663,1.);
#663 = DIRECTION('',(0.350686186773,-0.936493031691,0.));
#664 = ORIENTED_EDGE('',*,*,#665,.F.);
#665 = EDGE_CURVE('',#666,#658,#668,.T.);
#666 = VERTEX_POINT('',#667);
#667 = CARTESIAN_POINT('',(2.3525,2.89239637552E-23,-0.21));
#668 = LINE('',#669,#670);
#669 = CARTESIAN_POINT('',(2.3525,2.89239637552E-23,-0.21));
#670 = VECTOR('',#671,1.);
#671 = DIRECTION('',(0.,0.,1.));
#672 = ORIENTED_EDGE('',*,*,#673,.F.);
#673 = EDGE_CURVE('',#635,#666,#674,.T.);
#674 = LINE('',#675,#676);
#675 = CARTESIAN_POINT('',(2.05,0.807813802686,-0.21));
#676 = VECTOR('',#677,1.);
#677 = DIRECTION('',(0.350686186773,-0.936493031691,0.));
#678 = PLANE('',#679);
#679 = AXIS2_PLACEMENT_3D('',#680,#681,#682);
#680 = CARTESIAN_POINT('',(2.05,0.807813802686,-0.21));
#681 = DIRECTION('',(0.936493031691,0.350686186773,0.));
#682 = DIRECTION('',(0.350686186773,-0.936493031691,0.));
#683 = ADVANCED_FACE('',(#684),#709,.F.);
#684 = FACE_BOUND('',#685,.F.);
#685 = EDGE_LOOP('',(#686,#687,#695,#703));
#686 = ORIENTED_EDGE('',*,*,#665,.T.);
#687 = ORIENTED_EDGE('',*,*,#688,.T.);
#688 = EDGE_CURVE('',#658,#689,#691,.T.);
#689 = VERTEX_POINT('',#690);
#690 = CARTESIAN_POINT('',(3.0025,6.862863315775E-23,0.21));
#691 = LINE('',#692,#693);
#692 = CARTESIAN_POINT('',(2.3525,6.862863315775E-23,0.21));
#693 = VECTOR('',#694,1.);
#694 = DIRECTION('',(1.,0.,0.));
#695 = ORIENTED_EDGE('',*,*,#696,.F.);
#696 = EDGE_CURVE('',#697,#689,#699,.T.);
#697 = VERTEX_POINT('',#698);
#698 = CARTESIAN_POINT('',(3.0025,6.862863315775E-23,-0.21));
#699 = LINE('',#700,#701);
#700 = CARTESIAN_POINT('',(3.0025,6.862863315775E-23,-0.21));
#701 = VECTOR('',#702,1.);
#702 = DIRECTION('',(0.,0.,1.));
#703 = ORIENTED_EDGE('',*,*,#704,.F.);
#704 = EDGE_CURVE('',#666,#697,#705,.T.);
#705 = LINE('',#706,#707);
#706 = CARTESIAN_POINT('',(2.3525,6.862863315775E-23,-0.21));
#707 = VECTOR('',#708,1.);
#708 = DIRECTION('',(1.,0.,0.));
#709 = PLANE('',#710);
#710 = AXIS2_PLACEMENT_3D('',#711,#712,#713);
#711 = CARTESIAN_POINT('',(2.3525,6.862863315775E-23,-0.21));
#712 = DIRECTION('',(0.,1.,0.));
#713 = DIRECTION('',(1.,0.,0.));
#714 = ADVANCED_FACE('',(#715),#740,.F.);
#715 = FACE_BOUND('',#716,.F.);
#716 = EDGE_LOOP('',(#717,#718,#726,#734));
#717 = ORIENTED_EDGE('',*,*,#696,.T.);
#718 = ORIENTED_EDGE('',*,*,#719,.T.);
#719 = EDGE_CURVE('',#689,#720,#722,.T.);
#720 = VERTEX_POINT('',#721);
#721 = CARTESIAN_POINT('',(3.0025,0.22,0.21));
#722 = LINE('',#723,#724);
#723 = CARTESIAN_POINT('',(3.0025,6.862863315775E-23,0.21));
#724 = VECTOR('',#725,1.);
#725 = DIRECTION('',(0.,1.,0.));
#726 = ORIENTED_EDGE('',*,*,#727,.F.);
#727 = EDGE_CURVE('',#728,#720,#730,.T.);
#728 = VERTEX_POINT('',#729);
#729 = CARTESIAN_POINT('',(3.0025,0.22,-0.21));
#730 = LINE('',#731,#732);
#731 = CARTESIAN_POINT('',(3.0025,0.22,-0.21));
#732 = VECTOR('',#733,1.);
#733 = DIRECTION('',(0.,0.,1.));
#734 = ORIENTED_EDGE('',*,*,#735,.F.);
#735 = EDGE_CURVE('',#697,#728,#736,.T.);
#736 = LINE('',#737,#738);
#737 = CARTESIAN_POINT('',(3.0025,6.862863315775E-23,-0.21));
#738 = VECTOR('',#739,1.);
#739 = DIRECTION('',(0.,1.,0.));
#740 = PLANE('',#741);
#741 = AXIS2_PLACEMENT_3D('',#742,#743,#744);
#742 = CARTESIAN_POINT('',(3.0025,6.862863315775E-23,-0.21));
#743 = DIRECTION('',(-1.,0.,0.));
#744 = DIRECTION('',(0.,1.,0.));
#745 = ADVANCED_FACE('',(#746),#771,.F.);
#746 = FACE_BOUND('',#747,.F.);
#747 = EDGE_LOOP('',(#748,#749,#757,#765));
#748 = ORIENTED_EDGE('',*,*,#727,.T.);
#749 = ORIENTED_EDGE('',*,*,#750,.T.);
#750 = EDGE_CURVE('',#720,#751,#753,.T.);
#751 = VERTEX_POINT('',#752);
#752 = CARTESIAN_POINT('',(2.505036147211,0.22,0.21));
#753 = LINE('',#754,#755);
#754 = CARTESIAN_POINT('',(3.0025,0.22,0.21));
#755 = VECTOR('',#756,1.);
#756 = DIRECTION('',(-1.,0.,0.));
#757 = ORIENTED_EDGE('',*,*,#758,.F.);
#758 = EDGE_CURVE('',#759,#751,#761,.T.);
#759 = VERTEX_POINT('',#760);
#760 = CARTESIAN_POINT('',(2.505036147211,0.22,-0.21));
#761 = LINE('',#762,#763);
#762 = CARTESIAN_POINT('',(2.505036147211,0.22,-0.21));
#763 = VECTOR('',#764,1.);
#764 = DIRECTION('',(0.,0.,1.));
#765 = ORIENTED_EDGE('',*,*,#766,.F.);
#766 = EDGE_CURVE('',#728,#759,#767,.T.);
#767 = LINE('',#768,#769);
#768 = CARTESIAN_POINT('',(3.0025,0.22,-0.21));
#769 = VECTOR('',#770,1.);
#770 = DIRECTION('',(-1.,0.,0.));
#771 = PLANE('',#772);
#772 = AXIS2_PLACEMENT_3D('',#773,#774,#775);
#773 = CARTESIAN_POINT('',(3.0025,0.22,-0.21));
#774 = DIRECTION('',(0.,-1.,0.));
#775 = DIRECTION('',(-1.,0.,0.));
#776 = ADVANCED_FACE('',(#777),#802,.F.);
#777 = FACE_BOUND('',#778,.F.);
#778 = EDGE_LOOP('',(#779,#780,#788,#796));
#779 = ORIENTED_EDGE('',*,*,#758,.T.);
#780 = ORIENTED_EDGE('',*,*,#781,.T.);
#781 = EDGE_CURVE('',#751,#782,#784,.T.);
#782 = VERTEX_POINT('',#783);
#783 = CARTESIAN_POINT('',(2.202536147211,1.027813802686,0.21));
#784 = LINE('',#785,#786);
#785 = CARTESIAN_POINT('',(2.505036147211,0.22,0.21));
#786 = VECTOR('',#787,1.);
#787 = DIRECTION('',(-0.350686186773,0.936493031691,0.));
#788 = ORIENTED_EDGE('',*,*,#789,.F.);
#789 = EDGE_CURVE('',#790,#782,#792,.T.);
#790 = VERTEX_POINT('',#791);
#791 = CARTESIAN_POINT('',(2.202536147211,1.027813802686,-0.21));
#792 = LINE('',#793,#794);
#793 = CARTESIAN_POINT('',(2.202536147211,1.027813802686,-0.21));
#794 = VECTOR('',#795,1.);
#795 = DIRECTION('',(0.,0.,1.));
#796 = ORIENTED_EDGE('',*,*,#797,.F.);
#797 = EDGE_CURVE('',#759,#790,#798,.T.);
#798 = LINE('',#799,#800);
#799 = CARTESIAN_POINT('',(2.505036147211,0.22,-0.21));
#800 = VECTOR('',#801,1.);
#801 = DIRECTION('',(-0.350686186773,0.936493031691,0.));
#802 = PLANE('',#803);
#803 = AXIS2_PLACEMENT_3D('',#804,#805,#806);
#804 = CARTESIAN_POINT('',(2.505036147211,0.22,-0.21));
#805 = DIRECTION('',(-0.936493031691,-0.350686186773,0.));
#806 = DIRECTION('',(-0.350686186773,0.936493031691,0.));
#807 = ADVANCED_FACE('',(#808),#833,.F.);
#808 = FACE_BOUND('',#809,.F.);
#809 = EDGE_LOOP('',(#810,#811,#819,#827));
#810 = ORIENTED_EDGE('',*,*,#789,.T.);
#811 = ORIENTED_EDGE('',*,*,#812,.T.);
#812 = EDGE_CURVE('',#782,#813,#815,.T.);
#813 = VERTEX_POINT('',#814);
#814 = CARTESIAN_POINT('',(1.95,1.027813802686,0.21));
#815 = LINE('',#816,#817);
#816 = CARTESIAN_POINT('',(2.202536147211,1.027813802686,0.21));
#817 = VECTOR('',#818,1.);
#818 = DIRECTION('',(-1.,0.,0.));
#819 = ORIENTED_EDGE('',*,*,#820,.F.);
#820 = EDGE_CURVE('',#821,#813,#823,.T.);
#821 = VERTEX_POINT('',#822);
#822 = CARTESIAN_POINT('',(1.95,1.027813802686,-0.21));
#823 = LINE('',#824,#825);
#824 = CARTESIAN_POINT('',(1.95,1.027813802686,-0.21));
#825 = VECTOR('',#826,1.);
#826 = DIRECTION('',(0.,0.,1.));
#827 = ORIENTED_EDGE('',*,*,#828,.F.);
#828 = EDGE_CURVE('',#790,#821,#829,.T.);
#829 = LINE('',#830,#831);
#830 = CARTESIAN_POINT('',(2.202536147211,1.027813802686,-0.21));
#831 = VECTOR('',#832,1.);
#832 = DIRECTION('',(-1.,0.,0.));
#833 = PLANE('',#834);
#834 = AXIS2_PLACEMENT_3D('',#835,#836,#837);
#835 = CARTESIAN_POINT('',(2.202536147211,1.027813802686,-0.21));
#836 = DIRECTION('',(0.,-1.,0.));
#837 = DIRECTION('',(-1.,0.,0.));
#838 = ADVANCED_FACE('',(#839),#855,.F.);
#839 = FACE_BOUND('',#840,.F.);
#840 = EDGE_LOOP('',(#841,#842,#848,#849));
#841 = ORIENTED_EDGE('',*,*,#820,.T.);
#842 = ORIENTED_EDGE('',*,*,#843,.T.);
#843 = EDGE_CURVE('',#813,#619,#844,.T.);
#844 = LINE('',#845,#846);
#845 = CARTESIAN_POINT('',(1.95,1.027813802686,0.21));
#846 = VECTOR('',#847,1.);
#847 = DIRECTION('',(0.,-1.,0.));
#848 = ORIENTED_EDGE('',*,*,#616,.F.);
#849 = ORIENTED_EDGE('',*,*,#850,.F.);
#850 = EDGE_CURVE('',#821,#617,#851,.T.);
#851 = LINE('',#852,#853);
#852 = CARTESIAN_POINT('',(1.95,1.027813802686,-0.21));
#853 = VECTOR('',#854,1.);
#854 = DIRECTION('',(0.,-1.,0.));
#855 = PLANE('',#856);
#856 = AXIS2_PLACEMENT_3D('',#857,#858,#859);
#857 = CARTESIAN_POINT('',(1.95,1.027813802686,-0.21));
#858 = DIRECTION('',(1.,0.,0.));
#859 = DIRECTION('',(0.,-1.,0.));
#860 = ADVANCED_FACE('',(#861),#871,.F.);
#861 = FACE_BOUND('',#862,.F.);
#862 = EDGE_LOOP('',(#863,#864,#865,#866,#867,#868,#869,#870));
#863 = ORIENTED_EDGE('',*,*,#642,.T.);
#864 = ORIENTED_EDGE('',*,*,#673,.T.);
#865 = ORIENTED_EDGE('',*,*,#704,.T.);
#866 = ORIENTED_EDGE('',*,*,#735,.T.);
#867 = ORIENTED_EDGE('',*,*,#766,.T.);
#868 = ORIENTED_EDGE('',*,*,#797,.T.);
#869 = ORIENTED_EDGE('',*,*,#828,.T.);
#870 = ORIENTED_EDGE('',*,*,#850,.T.);
#871 = PLANE('',#872);
#872 = AXIS2_PLACEMENT_3D('',#873,#874,#875);
#873 = CARTESIAN_POINT('',(2.41551170333,0.42630520486,-0.21));
#874 = DIRECTION('',(0.,0.,1.));
#875 = DIRECTION('',(1.,0.,0.));
#876 = ADVANCED_FACE('',(#877),#887,.T.);
#877 = FACE_BOUND('',#878,.T.);
#878 = EDGE_LOOP('',(#879,#880,#881,#882,#883,#884,#885,#886));
#879 = ORIENTED_EDGE('',*,*,#626,.T.);
#880 = ORIENTED_EDGE('',*,*,#657,.T.);
#881 = ORIENTED_EDGE('',*,*,#688,.T.);
#882 = ORIENTED_EDGE('',*,*,#719,.T.);
#883 = ORIENTED_EDGE('',*,*,#750,.T.);
#884 = ORIENTED_EDGE('',*,*,#781,.T.);
#885 = ORIENTED_EDGE('',*,*,#812,.T.);
#886 = ORIENTED_EDGE('',*,*,#843,.T.);
#887 = PLANE('',#888);
#888 = AXIS2_PLACEMENT_3D('',#889,#890,#891);
#889 = CARTESIAN_POINT('',(2.41551170333,0.42630520486,0.21));
#890 = DIRECTION('',(0.,0.,1.));
#891 = DIRECTION('',(1.,0.,0.));
#892 = ( GEOMETRIC_REPRESENTATION_CONTEXT(3) 
GLOBAL_UNCERTAINTY_ASSIGNED_CONTEXT((#896)) GLOBAL_UNIT_ASSIGNED_CONTEXT
((#893,#894,#895)) REPRESENTATION_CONTEXT('Context #1',
  '3D Context with UNIT and UNCERTAINTY') );
#893 = ( LENGTH_UNIT() NAMED_UNIT(*) SI_UNIT(.MILLI.,.METRE.) );
#894 = ( NAMED_UNIT(*) PLANE_ANGLE_UNIT() SI_UNIT($,.RADIAN.) );
#895 = ( NAMED_UNIT(*) SI_UNIT($,.STERADIAN.) SOLID_ANGLE_UNIT() );
#896 = UNCERTAINTY_MEASURE_WITH_UNIT(LENGTH_MEASURE(1.E-07),#893,
  'distance_accuracy_value','confusion accuracy');
#897 = CONTEXT_DEPENDENT_SHAPE_REPRESENTATION(#898,#900);
#898 = ( REPRESENTATION_RELATIONSHIP('','',#609,#574) 
REPRESENTATION_RELATIONSHIP_WITH_TRANSFORMATION(#899) 
SHAPE_REPRESENTATION_RELATIONSHIP() );
#899 = ITEM_DEFINED_TRANSFORMATION('','',#11,#575);
#900 = PRODUCT_DEFINITION_SHAPE('Placement','Placement of an item',#901
  );
#901 = NEXT_ASSEMBLY_USAGE_OCCURRENCE('7442','0','',#569,#604,$);
#902 = PRODUCT_RELATED_PRODUCT_CATEGORY('part',$,(#606));
#903 = CONTEXT_DEPENDENT_SHAPE_REPRESENTATION(#904,#906);
#904 = ( REPRESENTATION_RELATIONSHIP('','',#609,#574) 
REPRESENTATION_RELATIONSHIP_WITH_TRANSFORMATION(#905) 
SHAPE_REPRESENTATION_RELATIONSHIP() );
#905 = ITEM_DEFINED_TRANSFORMATION('','',#11,#579);
#906 = PRODUCT_DEFINITION_SHAPE('Placement','Placement of an item',#907
  );
#907 = NEXT_ASSEMBLY_USAGE_OCCURRENCE('7443','1','',#569,#604,$);
#908 = CONTEXT_DEPENDENT_SHAPE_REPRESENTATION(#909,#911);
#909 = ( REPRESENTATION_RELATIONSHIP('','',#609,#574) 
REPRESENTATION_RELATIONSHIP_WITH_TRANSFORMATION(#910) 
SHAPE_REPRESENTATION_RELATIONSHIP() );
#910 = ITEM_DEFINED_TRANSFORMATION('','',#11,#583);
#911 = PRODUCT_DEFINITION_SHAPE('Placement','Placement of an item',#912
  );
#912 = NEXT_ASSEMBLY_USAGE_OCCURRENCE('7444','2','',#569,#604,$);
#913 = CONTEXT_DEPENDENT_SHAPE_REPRESENTATION(#914,#916);
#914 = ( REPRESENTATION_RELATIONSHIP('','',#609,#574) 
REPRESENTATION_RELATIONSHIP_WITH_TRANSFORMATION(#915) 
SHAPE_REPRESENTATION_RELATIONSHIP() );
#915 = ITEM_DEFINED_TRANSFORMATION('','',#11,#587);
#916 = PRODUCT_DEFINITION_SHAPE('Placement','Placement of an item',#917
  );
#917 = NEXT_ASSEMBLY_USAGE_OCCURRENCE('7445','3','',#569,#604,$);
#918 = SHAPE_DEFINITION_REPRESENTATION(#919,#925);
#919 = PRODUCT_DEFINITION_SHAPE('','',#920);
#920 = PRODUCT_DEFINITION('design','',#921,#924);
#921 = PRODUCT_DEFINITION_FORMATION('','',#922);
#922 = PRODUCT('Array','Array','',(#923));
#923 = PRODUCT_CONTEXT('',#2,'mechanical');
#924 = PRODUCT_DEFINITION_CONTEXT('part definition',#2,'design');
#925 = SHAPE_REPRESENTATION('',(#11,#926,#930,#934,#938),#942);
#926 = AXIS2_PLACEMENT_3D('',#927,#928,#929);
#927 = CARTESIAN_POINT('',(0.,0.,0.));
#928 = DIRECTION('',(0.,0.,1.));
#929 = DIRECTION('',(1.,0.,0.));
#930 = AXIS2_PLACEMENT_3D('',#931,#932,#933);
#931 = CARTESIAN_POINT('',(0.,0.,-1.27));
#932 = DIRECTION('',(0.,0.,1.));
#933 = DIRECTION('',(1.,0.,0.));
#934 = AXIS2_PLACEMENT_3D('',#935,#936,#937);
#935 = CARTESIAN_POINT('',(0.,0.,-2.54));
#936 = DIRECTION('',(0.,0.,1.));
#937 = DIRECTION('',(1.,0.,0.));
#938 = AXIS2_PLACEMENT_3D('',#939,#940,#941);
#939 = CARTESIAN_POINT('',(0.,0.,-3.81));
#940 = DIRECTION('',(0.,0.,1.));
#941 = DIRECTION('',(1.,0.,0.));
#942 = ( GEOMETRIC_REPRESENTATION_CONTEXT(3) 
GLOBAL_UNCERTAINTY_ASSIGNED_CONTEXT((#946)) GLOBAL_UNIT_ASSIGNED_CONTEXT
((#943,#944,#945)) REPRESENTATION_CONTEXT('Context #1',
  '3D Context with UNIT and UNCERTAINTY') );
#943 = ( LENGTH_UNIT() NAMED_UNIT(*) SI_UNIT(.MILLI.,.METRE.) );
#944 = ( NAMED_UNIT(*) PLANE_ANGLE_UNIT() SI_UNIT($,.RADIAN.) );
#945 = ( NAMED_UNIT(*) SI_UNIT($,.STERADIAN.) SOLID_ANGLE_UNIT() );
#946 = UNCERTAINTY_MEASURE_WITH_UNIT(LENGTH_MEASURE(1.E-07),#943,
  'distance_accuracy_value','confusion accuracy');
#947 = CONTEXT_DEPENDENT_SHAPE_REPRESENTATION(#948,#950);
#948 = ( REPRESENTATION_RELATIONSHIP('','',#925,#10) 
REPRESENTATION_RELATIONSHIP_WITH_TRANSFORMATION(#949) 
SHAPE_REPRESENTATION_RELATIONSHIP() );
#949 = ITEM_DEFINED_TRANSFORMATION('','',#11,#27);
#950 = PRODUCT_DEFINITION_SHAPE('Placement','Placement of an item',#951
  );
#951 = NEXT_ASSEMBLY_USAGE_OCCURRENCE('7451','Array','',#5,#920,$);
#952 = PRODUCT_RELATED_PRODUCT_CATEGORY('part',$,(#922));
#953 = SHAPE_DEFINITION_REPRESENTATION(#954,#960);
#954 = PRODUCT_DEFINITION_SHAPE('','',#955);
#955 = PRODUCT_DEFINITION('design','',#956,#959);
#956 = PRODUCT_DEFINITION_FORMATION('','',#957);
#957 = PRODUCT('Body001 (Mirror #1)','Body001 (Mirror #1)','',(#958));
#958 = PRODUCT_CONTEXT('',#2,'mechanical');
#959 = PRODUCT_DEFINITION_CONTEXT('part definition',#2,'design');
#960 = ADVANCED_BREP_SHAPE_REPRESENTATION('',(#11,#961),#1243);
#961 = MANIFOLD_SOLID_BREP('',#962);
#962 = CLOSED_SHELL('',(#963,#1003,#1034,#1065,#1096,#1127,#1158,#1189,
    #1211,#1227));
#963 = ADVANCED_FACE('',(#964),#998,.F.);
#964 = FACE_BOUND('',#965,.T.);
#965 = EDGE_LOOP('',(#966,#976,#984,#992));
#966 = ORIENTED_EDGE('',*,*,#967,.T.);
#967 = EDGE_CURVE('',#968,#970,#972,.T.);
#968 = VERTEX_POINT('',#969);
#969 = CARTESIAN_POINT('',(-1.95,0.807813802686,1.695));
#970 = VERTEX_POINT('',#971);
#971 = CARTESIAN_POINT('',(-1.95,0.807813802686,2.115));
#972 = LINE('',#973,#974);
#973 = CARTESIAN_POINT('',(-1.95,0.807813802686,1.695));
#974 = VECTOR('',#975,1.);
#975 = DIRECTION('',(-0.,-0.,1.));
#976 = ORIENTED_EDGE('',*,*,#977,.T.);
#977 = EDGE_CURVE('',#970,#978,#980,.T.);
#978 = VERTEX_POINT('',#979);
#979 = CARTESIAN_POINT('',(-2.05,0.807813802686,2.115));
#980 = LINE('',#981,#982);
#981 = CARTESIAN_POINT('',(-1.95,0.807813802686,2.115));
#982 = VECTOR('',#983,1.);
#983 = DIRECTION('',(-1.,-0.,-0.));
#984 = ORIENTED_EDGE('',*,*,#985,.F.);
#985 = EDGE_CURVE('',#986,#978,#988,.T.);
#986 = VERTEX_POINT('',#987);
#987 = CARTESIAN_POINT('',(-2.05,0.807813802686,1.695));
#988 = LINE('',#989,#990);
#989 = CARTESIAN_POINT('',(-2.05,0.807813802686,1.695));
#990 = VECTOR('',#991,1.);
#991 = DIRECTION('',(-0.,-0.,1.));
#992 = ORIENTED_EDGE('',*,*,#993,.F.);
#993 = EDGE_CURVE('',#968,#986,#994,.T.);
#994 = LINE('',#995,#996);
#995 = CARTESIAN_POINT('',(-1.95,0.807813802686,1.695));
#996 = VECTOR('',#997,1.);
#997 = DIRECTION('',(-1.,-0.,-0.));
#998 = PLANE('',#999);
#999 = AXIS2_PLACEMENT_3D('',#1000,#1001,#1002);
#1000 = CARTESIAN_POINT('',(-1.95,0.807813802686,1.695));
#1001 = DIRECTION('',(-0.,1.,-0.));
#1002 = DIRECTION('',(1.,0.,0.));
#1003 = ADVANCED_FACE('',(#1004),#1029,.F.);
#1004 = FACE_BOUND('',#1005,.T.);
#1005 = EDGE_LOOP('',(#1006,#1007,#1015,#1023));
#1006 = ORIENTED_EDGE('',*,*,#985,.T.);
#1007 = ORIENTED_EDGE('',*,*,#1008,.T.);
#1008 = EDGE_CURVE('',#978,#1009,#1011,.T.);
#1009 = VERTEX_POINT('',#1010);
#1010 = CARTESIAN_POINT('',(-2.3525,2.89239637552E-23,2.115));
#1011 = LINE('',#1012,#1013);
#1012 = CARTESIAN_POINT('',(-2.05,0.807813802686,2.115));
#1013 = VECTOR('',#1014,1.);
#1014 = DIRECTION('',(-0.350686186773,-0.936493031691,-0.));
#1015 = ORIENTED_EDGE('',*,*,#1016,.F.);
#1016 = EDGE_CURVE('',#1017,#1009,#1019,.T.);
#1017 = VERTEX_POINT('',#1018);
#1018 = CARTESIAN_POINT('',(-2.3525,2.89239637552E-23,1.695));
#1019 = LINE('',#1020,#1021);
#1020 = CARTESIAN_POINT('',(-2.3525,2.89239637552E-23,1.695));
#1021 = VECTOR('',#1022,1.);
#1022 = DIRECTION('',(-0.,-0.,1.));
#1023 = ORIENTED_EDGE('',*,*,#1024,.F.);
#1024 = EDGE_CURVE('',#986,#1017,#1025,.T.);
#1025 = LINE('',#1026,#1027);
#1026 = CARTESIAN_POINT('',(-2.05,0.807813802686,1.695));
#1027 = VECTOR('',#1028,1.);
#1028 = DIRECTION('',(-0.350686186773,-0.936493031691,-0.));
#1029 = PLANE('',#1030);
#1030 = AXIS2_PLACEMENT_3D('',#1031,#1032,#1033);
#1031 = CARTESIAN_POINT('',(-2.05,0.807813802686,1.695));
#1032 = DIRECTION('',(-0.936493031691,0.350686186773,-0.));
#1033 = DIRECTION('',(0.350686186773,0.936493031691,0.));
#1034 = ADVANCED_FACE('',(#1035),#1060,.F.);
#1035 = FACE_BOUND('',#1036,.T.);
#1036 = EDGE_LOOP('',(#1037,#1038,#1046,#1054));
#1037 = ORIENTED_EDGE('',*,*,#1016,.T.);
#1038 = ORIENTED_EDGE('',*,*,#1039,.T.);
#1039 = EDGE_CURVE('',#1009,#1040,#1042,.T.);
#1040 = VERTEX_POINT('',#1041);
#1041 = CARTESIAN_POINT('',(-3.0025,6.862863315775E-23,2.115));
#1042 = LINE('',#1043,#1044);
#1043 = CARTESIAN_POINT('',(-2.3525,6.862863315775E-23,2.115));
#1044 = VECTOR('',#1045,1.);
#1045 = DIRECTION('',(-1.,-0.,-0.));
#1046 = ORIENTED_EDGE('',*,*,#1047,.F.);
#1047 = EDGE_CURVE('',#1048,#1040,#1050,.T.);
#1048 = VERTEX_POINT('',#1049);
#1049 = CARTESIAN_POINT('',(-3.0025,6.862863315775E-23,1.695));
#1050 = LINE('',#1051,#1052);
#1051 = CARTESIAN_POINT('',(-3.0025,6.862863315775E-23,1.695));
#1052 = VECTOR('',#1053,1.);
#1053 = DIRECTION('',(-0.,-0.,1.));
#1054 = ORIENTED_EDGE('',*,*,#1055,.F.);
#1055 = EDGE_CURVE('',#1017,#1048,#1056,.T.);
#1056 = LINE('',#1057,#1058);
#1057 = CARTESIAN_POINT('',(-2.3525,6.862863315775E-23,1.695));
#1058 = VECTOR('',#1059,1.);
#1059 = DIRECTION('',(-1.,-0.,-0.));
#1060 = PLANE('',#1061);
#1061 = AXIS2_PLACEMENT_3D('',#1062,#1063,#1064);
#1062 = CARTESIAN_POINT('',(-2.3525,6.862863315775E-23,1.695));
#1063 = DIRECTION('',(-0.,1.,-0.));
#1064 = DIRECTION('',(1.,0.,0.));
#1065 = ADVANCED_FACE('',(#1066),#1091,.F.);
#1066 = FACE_BOUND('',#1067,.T.);
#1067 = EDGE_LOOP('',(#1068,#1069,#1077,#1085));
#1068 = ORIENTED_EDGE('',*,*,#1047,.T.);
#1069 = ORIENTED_EDGE('',*,*,#1070,.T.);
#1070 = EDGE_CURVE('',#1040,#1071,#1073,.T.);
#1071 = VERTEX_POINT('',#1072);
#1072 = CARTESIAN_POINT('',(-3.0025,0.22,2.115));
#1073 = LINE('',#1074,#1075);
#1074 = CARTESIAN_POINT('',(-3.0025,6.862863315775E-23,2.115));
#1075 = VECTOR('',#1076,1.);
#1076 = DIRECTION('',(0.,1.,0.));
#1077 = ORIENTED_EDGE('',*,*,#1078,.F.);
#1078 = EDGE_CURVE('',#1079,#1071,#1081,.T.);
#1079 = VERTEX_POINT('',#1080);
#1080 = CARTESIAN_POINT('',(-3.0025,0.22,1.695));
#1081 = LINE('',#1082,#1083);
#1082 = CARTESIAN_POINT('',(-3.0025,0.22,1.695));
#1083 = VECTOR('',#1084,1.);
#1084 = DIRECTION('',(-0.,-0.,1.));
#1085 = ORIENTED_EDGE('',*,*,#1086,.F.);
#1086 = EDGE_CURVE('',#1048,#1079,#1087,.T.);
#1087 = LINE('',#1088,#1089);
#1088 = CARTESIAN_POINT('',(-3.0025,6.862863315775E-23,1.695));
#1089 = VECTOR('',#1090,1.);
#1090 = DIRECTION('',(0.,1.,0.));
#1091 = PLANE('',#1092);
#1092 = AXIS2_PLACEMENT_3D('',#1093,#1094,#1095);
#1093 = CARTESIAN_POINT('',(-3.0025,6.862863315775E-23,1.695));
#1094 = DIRECTION('',(1.,-0.,-0.));
#1095 = DIRECTION('',(0.,-1.,0.));
#1096 = ADVANCED_FACE('',(#1097),#1122,.F.);
#1097 = FACE_BOUND('',#1098,.T.);
#1098 = EDGE_LOOP('',(#1099,#1100,#1108,#1116));
#1099 = ORIENTED_EDGE('',*,*,#1078,.T.);
#1100 = ORIENTED_EDGE('',*,*,#1101,.T.);
#1101 = EDGE_CURVE('',#1071,#1102,#1104,.T.);
#1102 = VERTEX_POINT('',#1103);
#1103 = CARTESIAN_POINT('',(-2.505036147211,0.22,2.115));
#1104 = LINE('',#1105,#1106);
#1105 = CARTESIAN_POINT('',(-3.0025,0.22,2.115));
#1106 = VECTOR('',#1107,1.);
#1107 = DIRECTION('',(1.,0.,0.));
#1108 = ORIENTED_EDGE('',*,*,#1109,.F.);
#1109 = EDGE_CURVE('',#1110,#1102,#1112,.T.);
#1110 = VERTEX_POINT('',#1111);
#1111 = CARTESIAN_POINT('',(-2.505036147211,0.22,1.695));
#1112 = LINE('',#1113,#1114);
#1113 = CARTESIAN_POINT('',(-2.505036147211,0.22,1.695));
#1114 = VECTOR('',#1115,1.);
#1115 = DIRECTION('',(-0.,-0.,1.));
#1116 = ORIENTED_EDGE('',*,*,#1117,.F.);
#1117 = EDGE_CURVE('',#1079,#1110,#1118,.T.);
#1118 = LINE('',#1119,#1120);
#1119 = CARTESIAN_POINT('',(-3.0025,0.22,1.695));
#1120 = VECTOR('',#1121,1.);
#1121 = DIRECTION('',(1.,0.,0.));
#1122 = PLANE('',#1123);
#1123 = AXIS2_PLACEMENT_3D('',#1124,#1125,#1126);
#1124 = CARTESIAN_POINT('',(-3.0025,0.22,1.695));
#1125 = DIRECTION('',(-0.,-1.,-0.));
#1126 = DIRECTION('',(-1.,0.,0.));
#1127 = ADVANCED_FACE('',(#1128),#1153,.F.);
#1128 = FACE_BOUND('',#1129,.T.);
#1129 = EDGE_LOOP('',(#1130,#1131,#1139,#1147));
#1130 = ORIENTED_EDGE('',*,*,#1109,.T.);
#1131 = ORIENTED_EDGE('',*,*,#1132,.T.);
#1132 = EDGE_CURVE('',#1102,#1133,#1135,.T.);
#1133 = VERTEX_POINT('',#1134);
#1134 = CARTESIAN_POINT('',(-2.202536147211,1.027813802686,2.115));
#1135 = LINE('',#1136,#1137);
#1136 = CARTESIAN_POINT('',(-2.505036147211,0.22,2.115));
#1137 = VECTOR('',#1138,1.);
#1138 = DIRECTION('',(0.350686186773,0.936493031691,0.));
#1139 = ORIENTED_EDGE('',*,*,#1140,.F.);
#1140 = EDGE_CURVE('',#1141,#1133,#1143,.T.);
#1141 = VERTEX_POINT('',#1142);
#1142 = CARTESIAN_POINT('',(-2.202536147211,1.027813802686,1.695));
#1143 = LINE('',#1144,#1145);
#1144 = CARTESIAN_POINT('',(-2.202536147211,1.027813802686,1.695));
#1145 = VECTOR('',#1146,1.);
#1146 = DIRECTION('',(-0.,-0.,1.));
#1147 = ORIENTED_EDGE('',*,*,#1148,.F.);
#1148 = EDGE_CURVE('',#1110,#1141,#1149,.T.);
#1149 = LINE('',#1150,#1151);
#1150 = CARTESIAN_POINT('',(-2.505036147211,0.22,1.695));
#1151 = VECTOR('',#1152,1.);
#1152 = DIRECTION('',(0.350686186773,0.936493031691,0.));
#1153 = PLANE('',#1154);
#1154 = AXIS2_PLACEMENT_3D('',#1155,#1156,#1157);
#1155 = CARTESIAN_POINT('',(-2.505036147211,0.22,1.695));
#1156 = DIRECTION('',(0.936493031691,-0.350686186773,0.));
#1157 = DIRECTION('',(-0.350686186773,-0.936493031691,0.));
#1158 = ADVANCED_FACE('',(#1159),#1184,.F.);
#1159 = FACE_BOUND('',#1160,.T.);
#1160 = EDGE_LOOP('',(#1161,#1162,#1170,#1178));
#1161 = ORIENTED_EDGE('',*,*,#1140,.T.);
#1162 = ORIENTED_EDGE('',*,*,#1163,.T.);
#1163 = EDGE_CURVE('',#1133,#1164,#1166,.T.);
#1164 = VERTEX_POINT('',#1165);
#1165 = CARTESIAN_POINT('',(-1.95,1.027813802686,2.115));
#1166 = LINE('',#1167,#1168);
#1167 = CARTESIAN_POINT('',(-2.202536147211,1.027813802686,2.115));
#1168 = VECTOR('',#1169,1.);
#1169 = DIRECTION('',(1.,0.,0.));
#1170 = ORIENTED_EDGE('',*,*,#1171,.F.);
#1171 = EDGE_CURVE('',#1172,#1164,#1174,.T.);
#1172 = VERTEX_POINT('',#1173);
#1173 = CARTESIAN_POINT('',(-1.95,1.027813802686,1.695));
#1174 = LINE('',#1175,#1176);
#1175 = CARTESIAN_POINT('',(-1.95,1.027813802686,1.695));
#1176 = VECTOR('',#1177,1.);
#1177 = DIRECTION('',(-0.,-0.,1.));
#1178 = ORIENTED_EDGE('',*,*,#1179,.F.);
#1179 = EDGE_CURVE('',#1141,#1172,#1180,.T.);
#1180 = LINE('',#1181,#1182);
#1181 = CARTESIAN_POINT('',(-2.202536147211,1.027813802686,1.695));
#1182 = VECTOR('',#1183,1.);
#1183 = DIRECTION('',(1.,0.,0.));
#1184 = PLANE('',#1185);
#1185 = AXIS2_PLACEMENT_3D('',#1186,#1187,#1188);
#1186 = CARTESIAN_POINT('',(-2.202536147211,1.027813802686,1.695));
#1187 = DIRECTION('',(-0.,-1.,-0.));
#1188 = DIRECTION('',(-1.,0.,0.));
#1189 = ADVANCED_FACE('',(#1190),#1206,.F.);
#1190 = FACE_BOUND('',#1191,.T.);
#1191 = EDGE_LOOP('',(#1192,#1193,#1199,#1200));
#1192 = ORIENTED_EDGE('',*,*,#1171,.T.);
#1193 = ORIENTED_EDGE('',*,*,#1194,.T.);
#1194 = EDGE_CURVE('',#1164,#970,#1195,.T.);
#1195 = LINE('',#1196,#1197);
#1196 = CARTESIAN_POINT('',(-1.95,1.027813802686,2.115));
#1197 = VECTOR('',#1198,1.);
#1198 = DIRECTION('',(-0.,-1.,-0.));
#1199 = ORIENTED_EDGE('',*,*,#967,.F.);
#1200 = ORIENTED_EDGE('',*,*,#1201,.F.);
#1201 = EDGE_CURVE('',#1172,#968,#1202,.T.);
#1202 = LINE('',#1203,#1204);
#1203 = CARTESIAN_POINT('',(-1.95,1.027813802686,1.695));
#1204 = VECTOR('',#1205,1.);
#1205 = DIRECTION('',(-0.,-1.,-0.));
#1206 = PLANE('',#1207);
#1207 = AXIS2_PLACEMENT_3D('',#1208,#1209,#1210);
#1208 = CARTESIAN_POINT('',(-1.95,1.027813802686,1.695));
#1209 = DIRECTION('',(-1.,-0.,-0.));
#1210 = DIRECTION('',(0.,1.,0.));
#1211 = ADVANCED_FACE('',(#1212),#1222,.F.);
#1212 = FACE_BOUND('',#1213,.T.);
#1213 = EDGE_LOOP('',(#1214,#1215,#1216,#1217,#1218,#1219,#1220,#1221));
#1214 = ORIENTED_EDGE('',*,*,#993,.T.);
#1215 = ORIENTED_EDGE('',*,*,#1024,.T.);
#1216 = ORIENTED_EDGE('',*,*,#1055,.T.);
#1217 = ORIENTED_EDGE('',*,*,#1086,.T.);
#1218 = ORIENTED_EDGE('',*,*,#1117,.T.);
#1219 = ORIENTED_EDGE('',*,*,#1148,.T.);
#1220 = ORIENTED_EDGE('',*,*,#1179,.T.);
#1221 = ORIENTED_EDGE('',*,*,#1201,.T.);
#1222 = PLANE('',#1223);
#1223 = AXIS2_PLACEMENT_3D('',#1224,#1225,#1226);
#1224 = CARTESIAN_POINT('',(-2.41551170333,0.42630520486,1.695));
#1225 = DIRECTION('',(0.,0.,1.));
#1226 = DIRECTION('',(1.,0.,0.));
#1227 = ADVANCED_FACE('',(#1228),#1238,.T.);
#1228 = FACE_BOUND('',#1229,.F.);
#1229 = EDGE_LOOP('',(#1230,#1231,#1232,#1233,#1234,#1235,#1236,#1237));
#1230 = ORIENTED_EDGE('',*,*,#977,.T.);
#1231 = ORIENTED_EDGE('',*,*,#1008,.T.);
#1232 = ORIENTED_EDGE('',*,*,#1039,.T.);
#1233 = ORIENTED_EDGE('',*,*,#1070,.T.);
#1234 = ORIENTED_EDGE('',*,*,#1101,.T.);
#1235 = ORIENTED_EDGE('',*,*,#1132,.T.);
#1236 = ORIENTED_EDGE('',*,*,#1163,.T.);
#1237 = ORIENTED_EDGE('',*,*,#1194,.T.);
#1238 = PLANE('',#1239);
#1239 = AXIS2_PLACEMENT_3D('',#1240,#1241,#1242);
#1240 = CARTESIAN_POINT('',(-2.41551170333,0.42630520486,2.115));
#1241 = DIRECTION('',(0.,0.,1.));
#1242 = DIRECTION('',(1.,0.,0.));
#1243 = ( GEOMETRIC_REPRESENTATION_CONTEXT(3) 
GLOBAL_UNCERTAINTY_ASSIGNED_CONTEXT((#1247)) 
GLOBAL_UNIT_ASSIGNED_CONTEXT((#1244,#1245,#1246)) REPRESENTATION_CONTEXT
('Context #1','3D Context with UNIT and UNCERTAINTY') );
#1244 = ( LENGTH_UNIT() NAMED_UNIT(*) SI_UNIT(.MILLI.,.METRE.) );
#1245 = ( NAMED_UNIT(*) PLANE_ANGLE_UNIT() SI_UNIT($,.RADIAN.) );
#1246 = ( NAMED_UNIT(*) SI_UNIT($,.STERADIAN.) SOLID_ANGLE_UNIT() );
#1247 = UNCERTAINTY_MEASURE_WITH_UNIT(LENGTH_MEASURE(1.E-07),#1244,
  'distance_accuracy_value','confusion accuracy');
#1248 = CONTEXT_DEPENDENT_SHAPE_REPRESENTATION(#1249,#1251);
#1249 = ( REPRESENTATION_RELATIONSHIP('','',#960,#925) 
REPRESENTATION_RELATIONSHIP_WITH_TRANSFORMATION(#1250) 
SHAPE_REPRESENTATION_RELATIONSHIP() );
#1250 = ITEM_DEFINED_TRANSFORMATION('','',#11,#926);
#1251 = PRODUCT_DEFINITION_SHAPE('Placement','Placement of an item',
  #1252);
#1252 = NEXT_ASSEMBLY_USAGE_OCCURRENCE('7447','0','',#920,#955,$);
#1253 = PRODUCT_RELATED_PRODUCT_CATEGORY('part',$,(#957));
#1254 = CONTEXT_DEPENDENT_SHAPE_REPRESENTATION(#1255,#1257);
#1255 = ( REPRESENTATION_RELATIONSHIP('','',#960,#925) 
REPRESENTATION_RELATIONSHIP_WITH_TRANSFORMATION(#1256) 
SHAPE_REPRESENTATION_RELATIONSHIP() );
#1256 = ITEM_DEFINED_TRANSFORMATION('','',#11,#930);
#1257 = PRODUCT_DEFINITION_SHAPE('Placement','Placement of an item',
  #1258);
#1258 = NEXT_ASSEMBLY_USAGE_OCCURRENCE('7448','1','',#920,#955,$);
#1259 = CONTEXT_DEPENDENT_SHAPE_REPRESENTATION(#1260,#1262);
#1260 = ( REPRESENTATION_RELATIONSHIP('','',#960,#925) 
REPRESENTATION_RELATIONSHIP_WITH_TRANSFORMATION(#1261) 
SHAPE_REPRESENTATION_RELATIONSHIP() );
#1261 = ITEM_DEFINED_TRANSFORMATION('','',#11,#934);
#1262 = PRODUCT_DEFINITION_SHAPE('Placement','Placement of an item',
  #1263);
#1263 = NEXT_ASSEMBLY_USAGE_OCCURRENCE('7449','2','',#920,#955,$);
#1264 = CONTEXT_DEPENDENT_SHAPE_REPRESENTATION(#1265,#1267);
#1265 = ( REPRESENTATION_RELATIONSHIP('','',#960,#925) 
REPRESENTATION_RELATIONSHIP_WITH_TRANSFORMATION(#1266) 
SHAPE_REPRESENTATION_RELATIONSHIP() );
#1266 = ITEM_DEFINED_TRANSFORMATION('','',#11,#938);
#1267 = PRODUCT_DEFINITION_SHAPE('Placement','Placement of an item',
  #1268);
#1268 = NEXT_ASSEMBLY_USAGE_OCCURRENCE('7450','3','',#920,#955,$);
#1269 = MECHANICAL_DESIGN_GEOMETRIC_PRESENTATION_REPRESENTATION('',(
    #1270),#892);
#1270 = STYLED_ITEM('color',(#1271),#610);
#1271 = PRESENTATION_STYLE_ASSIGNMENT((#1272,#1278));
#1272 = SURFACE_STYLE_USAGE(.BOTH.,#1273);
#1273 = SURFACE_SIDE_STYLE('',(#1274));
#1274 = SURFACE_STYLE_FILL_AREA(#1275);
#1275 = FILL_AREA_STYLE('',(#1276));
#1276 = FILL_AREA_STYLE_COLOUR('',#1277);
#1277 = COLOUR_RGB('',0.800000010877,0.800000010877,0.800000010877);
#1278 = CURVE_STYLE('',#1279,POSITIVE_LENGTH_MEASURE(0.1),#1280);
#1279 = DRAUGHTING_PRE_DEFINED_CURVE_FONT('continuous');
#1280 = COLOUR_RGB('',9.803921802644E-02,9.803921802644E-02,
  9.803921802644E-02);
#1281 = MECHANICAL_DESIGN_GEOMETRIC_PRESENTATION_REPRESENTATION('',(
    #1282),#556);
#1282 = STYLED_ITEM('color',(#1283),#406);
#1283 = PRESENTATION_STYLE_ASSIGNMENT((#1284,#1289));
#1284 = SURFACE_STYLE_USAGE(.BOTH.,#1285);
#1285 = SURFACE_SIDE_STYLE('',(#1286));
#1286 = SURFACE_STYLE_FILL_AREA(#1287);
#1287 = FILL_AREA_STYLE('',(#1288));
#1288 = FILL_AREA_STYLE_COLOUR('',#1277);
#1289 = CURVE_STYLE('',#1290,POSITIVE_LENGTH_MEASURE(0.1),#1280);
#1290 = DRAUGHTING_PRE_DEFINED_CURVE_FONT('continuous');
#1291 = MECHANICAL_DESIGN_GEOMETRIC_PRESENTATION_REPRESENTATION('',(
    #1292),#387);
#1292 = STYLED_ITEM('color',(#1293),#45);
#1293 = PRESENTATION_STYLE_ASSIGNMENT((#1294,#1300));
#1294 = SURFACE_STYLE_USAGE(.BOTH.,#1295);
#1295 = SURFACE_SIDE_STYLE('',(#1296));
#1296 = SURFACE_STYLE_FILL_AREA(#1297);
#1297 = FILL_AREA_STYLE('',(#1298));
#1298 = FILL_AREA_STYLE_COLOUR('',#1299);
#1299 = COLOUR_RGB('',0.196078429142,0.196078429142,0.196078429142);
#1300 = CURVE_STYLE('',#1301,POSITIVE_LENGTH_MEASURE(0.1),#1280);
#1301 = DRAUGHTING_PRE_DEFINED_CURVE_FONT('continuous');
#1302 = MECHANICAL_DESIGN_GEOMETRIC_PRESENTATION_REPRESENTATION('',(
    #1303),#1243);
#1303 = STYLED_ITEM('color',(#1304),#961);
#1304 = PRESENTATION_STYLE_ASSIGNMENT((#1305,#1310));
#1305 = SURFACE_STYLE_USAGE(.BOTH.,#1306);
#1306 = SURFACE_SIDE_STYLE('',(#1307));
#1307 = SURFACE_STYLE_FILL_AREA(#1308);
#1308 = FILL_AREA_STYLE('',(#1309));
#1309 = FILL_AREA_STYLE_COLOUR('',#1277);
#1310 = CURVE_STYLE('',#1311,POSITIVE_LENGTH_MEASURE(0.1),#1280);
#1311 = DRAUGHTING_PRE_DEFINED_CURVE_FONT('continuous');
ENDSEC;
END-ISO-10303-21;
